<?xml version="1.0" encoding="UTF-8" standalone="no"?>
<svg
   xmlns:dc="http://purl.org/dc/elements/1.1/"
   xmlns:cc="http://creativecommons.org/ns#"
   xmlns:rdf="http://www.w3.org/1999/02/22-rdf-syntax-ns#"
   xmlns:svg="http://www.w3.org/2000/svg"
   xmlns="http://www.w3.org/2000/svg"
   id="svg8"
   version="1.1"
   viewBox="0 0 155.16881 155.16881"
   height="155.16881mm"
   width="155.16881mm">
  <defs
     id="defs2" />
  <metadata
     id="metadata5">
    <rdf:RDF>
      <cc:Work
         rdf:about="">
        <dc:format>image/svg+xml</dc:format>
        <dc:type
           rdf:resource="http://purl.org/dc/dcmitype/StillImage" />
        <dc:title></dc:title>
      </cc:Work>
    </rdf:RDF>
  </metadata>
  <g
     transform="translate(-28.268568,-70.405868)"
     id="layer1">
    <g
       transform="matrix(1.9015131,0,0,1.9015131,-51.971675,-94.798381)"
       id="g8833">
      <g
         id="v"
         transform="matrix(0.22448843,0,0,0.22448843,69.541427,135.31442)">
        <polygon
           id="left"
           class="st0"
           points="-2.1,-54.5 25.4,-15.3 13.2,2.1 -21.1,-46.9 "
           style="fill:#060606" />
        <polygon
           id="right"
           class="st1"
           points="28.5,-54.5 1,-15.3 13.2,2.1 47.6,-46.9 "
           style="fill:#005960" />
      </g>
      <path
         id="_x33_"
         class="st1"
         d="m 89.341306,145.19192 c 6.824446,0 11.852984,-3.72651 11.852984,-10.55096 0,-3.8163 -2.222439,-6.44282 -5.612211,-7.78975 2.963242,-1.50407 4.355073,-4.19794 4.355073,-7.36322 0,-5.05098 -4.310172,-9.31627 -10.461153,-9.31627 -5.477523,0 -9.248929,2.76121 -10.842795,6.86935 l 4.691807,1.79591 c 1.010202,-1.9755 2.806112,-3.81631 5.993845,-3.81631 3.479569,0 5.365272,1.8857 5.365272,4.98364 0,2.71631 -2.087738,4.60202 -5.230579,4.60202 h -2.604068 v 4.8265 h 2.604068 c 4.602014,0 6.487717,2.46937 6.487717,5.41017 0,3.8612 -3.008148,5.52242 -6.62241,5.52242 -2.851004,0 -5.657108,-1.30203 -7.206083,-4.8265 l -4.691807,1.8857 c 1.908153,4.66936 5.904045,7.7673 11.92034,7.7673 z"
         style="fill:#005960;stroke-width:0.22448842" />
    </g>
    <g
       transform="matrix(0.53235487,0,0,0.53235487,14.701461,85.861608)"
       id="g4557">
      <path
         style="stroke-width:10.54206085"
         d="m 647.14258,-57.232422 c -274.72614,0 -498.32227,223.703512 -498.32227,498.324222 0,274.6207 223.70155,498.32226 498.32227,498.32226 274.6207,0 498.32422,-223.70156 498.32422,-498.32226 0,-274.62071 -223.70352,-498.324222 -498.32422,-498.324222 z m -0.74219,44.277344 a 32.785812,32.785812 0 0 1 0.004,0 32.680391,32.785812 0 0 1 31.83789,32.785156 32.786135,32.786135 0 0 1 -65.57227,0 32.785812,32.785812 0 0 1 33.73047,-32.785156 z m -74.10547,53.974609 50.4961,52.921875 c 11.38541,11.912534 30.25542,12.440064 42.16796,0.949219 l 56.50586,-53.871094 a 403.44469,403.44469 0 0 1 66.1543,18.777344 c 1.97576,0.407587 3.93673,0.970989 5.87695,1.730469 13.99934,5.479892 27.61358,11.724081 40.80079,18.671875 a 403.44469,403.44469 0 0 1 2.36523,1.269531 c 10.36827,5.551273 20.46754,11.537743 30.26953,17.943359 a 403.44469,403.44469 0 0 1 6.39844,4.269531 c 8.32464,5.66907 16.42445,11.64272 24.28711,17.90234 a 403.44469,403.44469 0 0 1 9.8125,8.05664 c 6.45209,5.47512 12.72445,11.15359 18.81836,17.01758 a 403.44469,403.44469 0 0 1 11.94922,11.9668 c 5.13237,5.3678 10.11852,10.87734 14.95117,16.52148 a 403.44469,403.44469 0 0 1 12.51172,15.37696 c 3.37107,4.35061 6.66483,8.76435 9.85937,13.2539 0.23859,0.33532 0.45279,0.6794 0.67383,1.02149 a 403.44469,403.44469 0 0 1 21.47266,32.93555 l -38.68946,87.28906 c -6.6415,15.07515 0.21195,32.78628 15.18164,39.5332 l 74.4258,32.99609 a 403.44469,403.44469 0 0 1 0.8437,69.99805 h -0.5 c -5.7455,78.10094 -33.7008,150.02515 -77.59567,209.47266 h 0.7168 a 403.44469,403.44469 0 0 1 -37.31836,43.2207 l -69.26172,-14.86328 c -16.12936,-3.47887 -32.04848,6.85115 -35.52734,22.98047 l -16.44532,76.74805 a 403.44469,403.44469 0 0 1 -36.45312,14.36328 c -0.0902,0.0369 -0.18261,0.0712 -0.27344,0.10742 a 403.44469,403.44469 0 0 1 -1.01367,0.375 c -0.24074,0.087 -0.47392,0.18338 -0.71875,0.26562 -40.39438,13.56934 -83.64335,20.92188 -128.60938,20.92188 -40.73374,0 -80.05693,-6.03481 -117.12695,-17.25781 -2.64112,-0.79961 -5.08556,-1.88567 -7.35742,-3.22071 A 403.44469,403.44469 0 0 1 477.09961,803.52734 L 460.6543,726.78125 c -3.47891,-16.12936 -19.29252,-26.46129 -35.42188,-22.98242 l -67.78515,14.54883 a 403.44469,403.44469 0 0 1 -21.21289,-24.19141 c -1.98,-1.33851 -3.76227,-2.94462 -5.30469,-4.875 -55.15082,-69.02256 -88.12305,-156.54162 -88.12305,-251.76172 0,-2.92892 0.34165,-5.66443 0.98047,-8.23242 a 403.44469,403.44469 0 0 1 2.23047,-35.21289 l 70.63086,-31.41602 c 15.07515,-6.74692 21.92856,-24.35258 15.18164,-39.42773 l -14.54883,-32.78516 h 0.26563 c -13.3252,-23.74604 -27.38086,-44.84375 -27.38086,-44.84375 10.41967,-18.87574 21.81773,-35.1234 34.7871,-52.17773 51.04777,-67.12628 122.64108,-117.779826 205.4043,-142.587892 2.17055,-0.650615 4.32668,-0.947976 6.47266,-0.953126 a 403.44469,403.44469 0 0 1 35.46484,-8.863281 z M 255.5,283.69727 a 32.785812,32.785812 0 0 1 0.006,0 32.785812,32.785812 0 0 1 31.83594,32.78711 32.785812,32.785812 0 0 1 -65.57032,0 A 32.785812,32.785812 0 0 1 255.5,283.69727 Z m 781.6934,1.47656 a 32.785812,32.785812 0 0 1 0.01,0 32.785812,32.785812 0 0 1 31.8379,32.78515 32.78615,32.78615 0 0 1 -65.5723,0 32.785812,32.785812 0 0 1 33.7286,-32.78515 z M 403.61523,745.33398 a 32.785812,32.785812 0 0 1 0.006,0.002 32.785812,32.785812 0 0 1 31.83789,32.78515 32.78613,32.78613 0 0 1 -65.57226,0 32.785812,32.785812 0 0 1 33.72851,-32.78711 z m 485.46289,1.47657 a 32.785812,32.785812 0 0 1 0.006,0 32.785812,32.785812 0 0 1 31.83594,32.78711 32.78613,32.78613 0 0 1 -65.57226,0 32.785812,32.785812 0 0 1 33.73046,-32.78711 z"
         transform="scale(0.26458333)"
         id="path4504" />
      <path
         style="fill-rule:evenodd;stroke:#000000;stroke-width:8.36776161;stroke-linecap:round;stroke-linejoin:round"
         d="M 295.70761,116.70536 A 124.4844,124.4844 0 0 1 171.22322,241.18976 124.4844,124.4844 0 0 1 46.738819,116.70536 124.4844,124.4844 0 0 1 171.22322,-7.779039 124.4844,124.4844 0 0 1 295.70761,116.70536 Z m -2.34297,-12.02169 19.41321,12.02169 -19.41321,12.02168 16.67974,15.59193 -21.36569,8.00516 13.33264,18.54854 -22.56507,3.68181 9.48347,20.80784 -22.84399,-0.80889 5.2438,22.25825 -22.25825,-5.2438 0.80888,22.84399 -20.80783,-9.48346 -3.68181,22.56506 -18.54854,-13.33263 -8.00516,21.36568 -15.59193,-16.67974 -12.02168,19.41321 -12.02169,-19.41321 -15.59193,16.67974 -8.00515,-21.36568 -18.54854,13.33263 -3.68182,-22.56506 -20.807831,9.48346 0.808884,-22.84399 -22.258245,5.2438 5.243797,-22.25825 -22.843989,0.80889 9.483463,-20.80784 L 40.435106,170.87267 53.767739,152.32413 32.402055,144.31897 49.081793,128.72704 29.668586,116.70536 49.081793,104.68367 32.402055,89.091745 53.767739,81.086587 40.435106,62.538049 63.000169,58.856234 53.516706,38.048401 l 22.843989,0.808884 -5.243797,-22.258246 22.258245,5.243797 -0.808884,-22.8439882 20.807831,9.4834629 3.68182,-22.5650637 18.54854,13.33263359 8.00515,-21.36568459 15.59193,16.6797382 12.02169,-19.4132062 12.02168,19.4132062 15.59193,-16.6797382 8.00516,21.36568459 18.54854,-13.33263359 3.68181,22.5650637 20.80783,-9.4834629 -0.80888,22.8439882 22.25825,-5.243797 -5.2438,22.258246 22.84399,-0.808884 -9.48347,20.807833 22.56507,3.681815 -13.33264,18.548538 21.36569,8.005158 z"
         id="path4506" />
    </g>
  </g>
</svg>
